Disc Title:     Toy Story 2 - Blu-ray 3D™
Disc Label:     Toy.Story.2.1999.3D.Blu-ray.1080p.AVC.DTS-HD.MA.5.1
Disc Size:      37,811,290,418 bytes
Protection:     AACS
BDInfo:         0.7.5.5

Notes:          

BDINFO HOME:
  Cinema Squid (old)
    http://www.cinemasquid.com/blu-ray/tools/bdinfo
  UniqProject GitHub (new)
   https://github.com/UniqProject/BDInfo

INCLUDES FORUMS REPORT FOR:
  AVS Forum Blu-ray Audio and Video Specifications Thread
    http://www.avsforum.com/avs-vb/showthread.php?t=1155731


********************
PLAYLIST: 00800.MPLS
********************

<--- BEGIN FORUMS PASTE --->
[code]
                                                                                                                Total   Video                                             
Title                                                           Codec   Length  Movie Size      Disc Size       Bitrate Bitrate Main Audio Track                          Secondary Audio Track
-----                                                           ------  ------- --------------  --------------  ------- ------- ------------------                        ---------------------
00800.MPLS                                                      AVC     1:32:24 22,006,910,976  37,811,290,418  31.75   24.30   DTS-HD Master 5.1-ES 4038Kbps (48kHz/24-bit)
[/code]

[code]

DISC INFO:

Disc Title:     Toy Story 2 - Blu-ray 3D™
Disc Label:     Toy.Story.2.1999.3D.Blu-ray.1080p.AVC.DTS-HD.MA.5.1
Disc Size:      37,811,290,418 bytes
Protection:     AACS
BDInfo:         0.7.5.5

PLAYLIST REPORT:

Name:                   00800.MPLS
Length:                 1:32:24.413 (h:m:s.ms)
Size:                   22,006,910,976 bytes
Total Bitrate:          31.75 Mbps

VIDEO:

Codec                   Bitrate             Description     
-----                   -------             -----------     
MPEG-4 AVC Video        24303 kbps          1080p / 23.976 fps / 16:9 / High Profile 4.1

AUDIO:

Codec                           Language        Bitrate         Description     
-----                           --------        -------         -----------     
DTS-HD Master Audio             English         4038 kbps       5.1-ES / 48 kHz /  4038 kbps / 24-bit (DTS Core: 5.1-ES / 48 kHz /  1509 kbps / 24-bit)
DTS-ES Audio                    Italian         1509 kbps       5.1-ES / 48 kHz /  1509 kbps / 24-bit

SUBTITLES:

Codec                           Language        Bitrate         Description     
-----                           --------        -------         -----------     
Presentation Graphics           English         40.240 kbps                     
Presentation Graphics           English         50.532 kbps                     
Presentation Graphics           Italian         37.140 kbps                     

FILES:

Name            Time In         Length          Size            Total Bitrate   
----            -------         ------          ----            -------------   
00316.M2TS      0:00:00.000     0:00:44.502     176,363,520     31,704          
00317.M2TS      0:00:44.502     0:00:52.844     207,857,664     31,467          
00318.M2TS      0:01:37.347     0:02:02.956     504,072,192     32,797          
00319.M2TS      0:03:40.303     0:00:44.461     177,346,560     31,910          
00320.M2TS      0:04:24.764     0:13:45.449     3,254,740,992   31,544          
00321.M2TS      0:18:10.214     0:00:26.860     106,051,584     31,586          
00322.M2TS      0:18:37.074     0:13:55.584     3,311,738,880   31,707          
00323.M2TS      0:32:32.658     0:00:33.116     129,005,568     31,164          
00324.M2TS      0:33:05.775     0:06:58.876     1,669,466,112   31,885          
00325.M2TS      0:40:04.652     0:00:40.290     158,367,744     31,445          
00326.M2TS      0:40:44.942     0:02:15.385     529,489,920     31,288          
00327.M2TS      0:43:00.327     0:00:29.154     117,368,832     32,206          
00328.M2TS      0:43:29.481     0:07:18.396     1,738,211,328   31,719          
00330.M2TS      0:50:47.878     0:00:45.378     174,815,232     30,819          
00332.M2TS      0:51:33.256     0:33:35.388     8,032,352,256   31,884          
00334.M2TS      1:25:08.645     0:00:39.330     166,619,136     33,891          
00336.M2TS      1:25:47.976     0:06:36.437     1,553,043,456   31,340          

CHAPTERS:

Number          Time In         Length          Avg Video Rate  Max 1-Sec Rate  Max 1-Sec Time  Max 5-Sec Rate  Max 5-Sec Time  Max 10Sec Rate  Max 10Sec Time  Avg Frame Size  Max Frame Size  Max Frame Time  
------          -------         ------          --------------  --------------  --------------  --------------  --------------  --------------  --------------  --------------  --------------  --------------  
1               0:00:00.000     0:01:23.583     25,184 kbps     33,079 kbps     00:01:01.144    29,905 kbps     00:00:14.389    29,744 kbps     00:00:14.389    131,231 bytes   423,432 bytes   00:01:17.076    
2               0:01:23.583     0:03:24.704     24,345 kbps     39,029 kbps     00:03:01.139    31,086 kbps     00:01:39.224    29,500 kbps     00:02:34.696    126,924 bytes   633,325 bytes   00:03:39.510    
3               0:04:48.287     0:02:47.500     23,903 kbps     30,570 kbps     00:04:48.496    29,066 kbps     00:04:48.371    28,230 kbps     00:04:48.454    124,617 bytes   462,537 bytes   00:07:09.554    
4               0:07:35.788     0:03:05.143     24,274 kbps     31,334 kbps     00:10:39.930    28,468 kbps     00:08:07.445    28,088 kbps     00:09:34.865    126,552 bytes   461,227 bytes   00:08:44.690    
5               0:10:40.931     0:01:13.865     23,273 kbps     31,145 kbps     00:10:44.602    30,063 kbps     00:10:41.307    26,062 kbps     00:10:40.931    121,336 bytes   449,692 bytes   00:10:57.907    
6               0:11:54.797     0:00:52.302     22,036 kbps     30,716 kbps     00:12:03.055    28,627 kbps     00:12:00.344    25,018 kbps     00:11:57.341    114,887 bytes   351,819 bytes   00:12:18.779    
7               0:12:47.099     0:02:42.829     24,486 kbps     33,643 kbps     00:15:25.924    29,001 kbps     00:15:08.991    28,197 kbps     00:15:03.777    127,659 bytes   639,416 bytes   00:14:31.328    
8               0:15:29.928     0:02:45.915     24,342 kbps     34,191 kbps     00:17:14.324    28,593 kbps     00:17:29.465    27,779 kbps     00:17:25.210    126,905 bytes   640,525 bytes   00:15:34.683    
9               0:18:15.844     0:02:01.746     25,185 kbps     31,095 kbps     00:19:31.628    29,105 kbps     00:19:19.950    27,721 kbps     00:20:02.868    131,301 bytes   500,933 bytes   00:18:49.878    
10              0:20:17.591     0:03:56.444     23,702 kbps     31,543 kbps     00:20:54.503    29,928 kbps     00:20:45.118    29,649 kbps     00:20:45.410    123,571 bytes   563,117 bytes   00:23:25.320    
11              0:24:14.035     0:01:40.350     23,388 kbps     30,207 kbps     00:24:47.152    29,388 kbps     00:24:45.817    28,531 kbps     00:24:43.607    121,935 bytes   485,531 bytes   00:25:22.896    
12              0:25:54.386     0:04:37.735     24,767 kbps     30,773 kbps     00:25:59.891    29,499 kbps     00:25:58.098    28,592 kbps     00:26:42.183    129,123 bytes   520,992 bytes   00:30:19.359    
13              0:30:32.121     0:01:16.326     25,154 kbps     31,395 kbps     00:30:58.898    29,605 kbps     00:30:57.814    29,199 kbps     00:30:57.772    131,143 bytes   634,320 bytes   00:30:54.936    
14              0:31:48.448     0:01:03.021     25,020 kbps     31,231 kbps     00:32:50.468    29,935 kbps     00:32:46.464    29,792 kbps     00:32:41.459    130,442 bytes   620,220 bytes   00:32:04.380    
15              0:32:51.469     0:03:53.524     23,505 kbps     32,486 kbps     00:34:16.345    29,461 kbps     00:34:03.416    28,526 kbps     00:34:01.205    122,546 bytes   611,731 bytes   00:35:05.394    
16              0:36:44.994     0:02:24.143     25,739 kbps     32,637 kbps     00:37:19.403    30,154 kbps     00:37:28.371    29,920 kbps     00:37:28.204    134,192 bytes   634,025 bytes   00:37:14.190    
17              0:39:09.138     0:00:43.918     24,397 kbps     29,995 kbps     00:39:10.890    28,510 kbps     00:39:10.890    26,981 kbps     00:39:10.973    127,194 bytes   438,723 bytes   00:39:17.771    
18              0:39:53.057     0:01:13.281     23,628 kbps     33,168 kbps     00:40:10.616    27,857 kbps     00:40:11.242    26,830 kbps     00:40:07.071    123,185 bytes   630,794 bytes   00:40:02.566    
19              0:41:06.338     0:01:19.871     24,558 kbps     30,673 kbps     00:41:57.222    28,278 kbps     00:42:21.205    27,733 kbps     00:42:16.200    128,036 bytes   401,402 bytes   00:41:59.808    
20              0:42:26.210     0:02:15.134     24,525 kbps     33,197 kbps     00:42:46.480    30,438 kbps     00:42:42.476    28,017 kbps     00:42:37.554    127,863 bytes   638,044 bytes   00:42:47.439    
21              0:44:41.345     0:02:17.220     25,153 kbps     35,179 kbps     00:46:56.480    30,301 kbps     00:46:52.434    28,460 kbps     00:45:44.199    131,136 bytes   636,000 bytes   00:46:57.814    
22              0:46:58.565     0:06:25.384     23,774 kbps     35,326 kbps     00:51:45.685    30,678 kbps     00:51:41.723    30,331 kbps     00:51:36.718    123,949 bytes   609,847 bytes   00:51:51.274    
23              0:53:23.950     0:02:55.967     24,436 kbps     31,312 kbps     00:54:50.203    30,172 kbps     00:54:15.960    28,633 kbps     00:54:12.999    127,397 bytes   488,422 bytes   00:56:17.957    
24              0:56:19.918     0:04:50.123     24,251 kbps     33,770 kbps     00:57:10.093    29,317 kbps     01:00:36.090    28,878 kbps     00:59:05.708    126,436 bytes   637,431 bytes   00:57:11.094    
25              1:01:10.041     0:01:04.230     24,584 kbps     30,855 kbps     01:02:12.603    29,648 kbps     01:02:08.891    28,729 kbps     01:02:04.262    128,172 bytes   432,765 bytes   01:01:13.169    
26              1:02:14.272     0:02:09.629     24,879 kbps     32,268 kbps     01:04:22.483    28,866 kbps     01:04:15.559    28,284 kbps     01:04:13.432    129,707 bytes   493,264 bytes   01:04:10.971    
27              1:04:23.901     0:03:36.507     23,380 kbps     32,907 kbps     01:07:22.454    29,656 kbps     01:07:18.492    28,419 kbps     01:07:13.445    121,892 bytes   637,342 bytes   01:07:25.416    
28              1:08:00.409     0:01:51.778     23,395 kbps     31,759 kbps     01:09:10.562    27,008 kbps     01:08:21.639    25,826 kbps     01:08:19.678    121,970 bytes   447,208 bytes   01:09:11.480    
29              1:09:52.187     0:02:35.280     25,670 kbps     31,982 kbps     01:10:18.422    29,478 kbps     01:10:33.812    28,843 kbps     01:10:27.806    133,829 bytes   473,441 bytes   01:10:06.827    
30              1:12:27.467     0:02:31.025     23,777 kbps     29,355 kbps     01:14:52.612    26,852 kbps     01:13:56.390    26,382 kbps     01:13:53.178    123,962 bytes   424,602 bytes   01:12:28.468    
31              1:14:58.493     0:02:29.816     25,060 kbps     31,542 kbps     01:15:05.751    29,114 kbps     01:15:03.707    28,435 kbps     01:17:05.912    130,649 bytes   352,360 bytes   01:15:52.381    
32              1:17:28.310     0:02:17.971     23,285 kbps     30,564 kbps     01:17:57.964    27,878 kbps     01:18:12.521    26,847 kbps     01:19:22.257    121,399 bytes   365,724 bytes   01:17:45.869    
33              1:19:46.281     0:01:49.526     25,359 kbps     30,433 kbps     01:20:37.707    28,664 kbps     01:20:40.669    27,782 kbps     01:20:36.247    132,213 bytes   306,780 bytes   01:21:07.028    
34              1:21:35.807     0:04:13.169     25,075 kbps     32,004 kbps     01:21:45.400    29,818 kbps     01:21:54.993    29,468 kbps     01:21:52.824    130,730 bytes   564,241 bytes   01:25:03.514    
35              1:25:48.977     0:06:35.436     23,996 kbps     31,769 kbps     01:29:25.526    30,064 kbps     01:29:36.913    29,859 kbps     01:29:21.355    125,118 bytes   390,023 bytes   01:30:16.619    

STREAM DIAGNOSTICS:

File            PID             Type            Codec           Language                Seconds                 Bitrate                 Bytes           Packets         
----            ---             ----            -----           --------                --------------          --------------          -------------   -----           
00316.M2TS      4113 (0x1011)   0x1B            AVC                                     44.419                  24,582                  136,488,295     742,433         
00316.M2TS      4352 (0x1100)   0x86            DTS-HD MA       eng (English)           44.419                  3,911                   21,717,516      124,419         
00316.M2TS      4353 (0x1101)   0x82            DTS-ES          ita (Italian)           44.419                  1,512                   8,396,076       50,076          
00316.M2TS      4608 (0x1200)   0x90            PGS             eng (English)           44.419                  0                       70              7               
00316.M2TS      4609 (0x1201)   0x90            PGS             eng (English)           44.419                  2                       11,905          72              
00316.M2TS      4610 (0x1202)   0x90            PGS             ita (Italian)           44.419                  0                       70              7               
00317.M2TS      4113 (0x1011)   0x1B            AVC                                     52.761                  24,037                  158,527,466     862,345         
00317.M2TS      4352 (0x1100)   0x86            DTS-HD MA       eng (English)           52.761                  4,198                   27,685,888      158,916         
00317.M2TS      4353 (0x1101)   0x82            DTS-ES          ita (Italian)           52.761                  1,512                   9,969,460       59,460          
00317.M2TS      4608 (0x1200)   0x90            PGS             eng (English)           52.761                  0                       70              7               
00317.M2TS      4609 (0x1201)   0x90            PGS             eng (English)           52.761                  2                       13,202          78              
00317.M2TS      4610 (0x1202)   0x90            PGS             ita (Italian)           52.761                  0                       70              7               
00318.M2TS      4113 (0x1011)   0x1B            AVC                                     122.873                 24,851                  381,690,744     2,076,186       
00318.M2TS      4352 (0x1100)   0x86            DTS-HD MA       eng (English)           122.873                 4,613                   70,853,764      403,445         
00318.M2TS      4353 (0x1101)   0x82            DTS-ES          ita (Italian)           122.873                 1,510                   23,194,336      138,336         
00318.M2TS      4608 (0x1200)   0x90            PGS             eng (English)           122.873                 7                       110,121         625             
00318.M2TS      4609 (0x1201)   0x90            PGS             eng (English)           122.873                 23                      360,297         2,081           
00318.M2TS      4610 (0x1202)   0x90            PGS             ita (Italian)           122.873                 7                       101,193         576             
00319.M2TS      4113 (0x1011)   0x1B            AVC                                     44.378                  24,277                  134,671,755     732,541         
00319.M2TS      4352 (0x1100)   0x86            DTS-HD MA       eng (English)           44.378                  4,391                   24,357,444      139,029         
00319.M2TS      4353 (0x1101)   0x82            DTS-ES          ita (Italian)           44.378                  1,512                   8,388,028       50,028          
00319.M2TS      4608 (0x1200)   0x90            PGS             eng (English)           44.378                  3                       16,105          94              
00319.M2TS      4609 (0x1201)   0x90            PGS             eng (English)           44.378                  12                      65,906          385             
00319.M2TS      4610 (0x1202)   0x90            PGS             ita (Italian)           44.378                  3                       15,080          89              
00320.M2TS      4113 (0x1011)   0x1B            AVC                                     825.366                 24,077                  2,484,010,614   13,511,948      
00320.M2TS      4352 (0x1100)   0x86            DTS-HD MA       eng (English)           825.366                 4,047                   417,577,624     2,399,838       
00320.M2TS      4353 (0x1101)   0x82            DTS-ES          ita (Italian)           825.366                 1,509                   155,700,632     928,632         
00320.M2TS      4608 (0x1200)   0x90            PGS             eng (English)           825.366                 45                      4,601,800       26,315          
00320.M2TS      4609 (0x1201)   0x90            PGS             eng (English)           825.366                 58                      5,986,118       34,099          
00320.M2TS      4610 (0x1202)   0x90            PGS             ita (Italian)           825.366                 39                      4,048,034       23,278          
00321.M2TS      4113 (0x1011)   0x1B            AVC                                     26.777                  24,379                  81,599,318      443,866         
00321.M2TS      4352 (0x1100)   0x86            DTS-HD MA       eng (English)           26.777                  3,938                   13,181,016      75,779          
00321.M2TS      4353 (0x1101)   0x82            DTS-ES          ita (Italian)           26.777                  1,514                   5,068,228       30,228          
00321.M2TS      4608 (0x1200)   0x90            PGS             eng (English)           26.777                  28                      95,346          544             
00321.M2TS      4609 (0x1201)   0x90            PGS             eng (English)           26.777                  28                      95,346          544             
00321.M2TS      4610 (0x1202)   0x90            PGS             ita (Italian)           26.777                  25                      84,884          488             
00322.M2TS      4113 (0x1011)   0x1B            AVC                                     835.501                 24,349                  2,542,999,341   13,832,637      
00322.M2TS      4352 (0x1100)   0x86            DTS-HD MA       eng (English)           835.501                 3,922                   409,586,016     2,354,060       
00322.M2TS      4353 (0x1101)   0x82            DTS-ES          ita (Italian)           835.501                 1,509                   157,614,044     940,044         
00322.M2TS      4608 (0x1200)   0x90            PGS             eng (English)           835.501                 51                      5,314,731       30,337          
00322.M2TS      4609 (0x1201)   0x90            PGS             eng (English)           835.501                 60                      6,286,771       35,807          
00322.M2TS      4610 (0x1202)   0x90            PGS             ita (Italian)           835.501                 46                      4,847,515       27,766          
00323.M2TS      4113 (0x1011)   0x1B            AVC                                     33.033                  24,259                  100,170,057     544,894         
00323.M2TS      4352 (0x1100)   0x86            DTS-HD MA       eng (English)           33.033                  3,653                   15,085,696      86,708          
00323.M2TS      4353 (0x1101)   0x82            DTS-ES          ita (Italian)           33.033                  1,513                   6,247,260       37,260          
00323.M2TS      4608 (0x1200)   0x90            PGS             eng (English)           33.033                  22                      89,956          510             
00323.M2TS      4609 (0x1201)   0x90            PGS             eng (English)           33.033                  35                      145,729         827             
00323.M2TS      4610 (0x1202)   0x90            PGS             ita (Italian)           33.033                  25                      104,339         594             
00324.M2TS      4113 (0x1011)   0x1B            AVC                                     418.793                 24,506                  1,282,893,726   6,978,285       
00324.M2TS      4352 (0x1100)   0x86            DTS-HD MA       eng (English)           418.793                 3,999                   209,333,992     1,203,545       
00324.M2TS      4353 (0x1101)   0x82            DTS-ES          ita (Italian)           418.793                 1,509                   79,011,240      471,240         
00324.M2TS      4608 (0x1200)   0x90            PGS             eng (English)           418.793                 28                      1,441,300       8,262           
00324.M2TS      4609 (0x1201)   0x90            PGS             eng (English)           418.793                 39                      2,053,691       11,801          
00324.M2TS      4610 (0x1202)   0x90            PGS             ita (Italian)           418.793                 26                      1,385,699       7,953           
00325.M2TS      4113 (0x1011)   0x1B            AVC                                     40.207                  24,050                  120,870,309     657,494         
00325.M2TS      4352 (0x1100)   0x86            DTS-HD MA       eng (English)           40.207                  4,049                   20,350,720      117,672         
00325.M2TS      4353 (0x1101)   0x82            DTS-ES          ita (Italian)           40.207                  1,512                   7,601,336       45,336          
00325.M2TS      4608 (0x1200)   0x90            PGS             eng (English)           40.207                  31                      156,514         902             
00325.M2TS      4609 (0x1201)   0x90            PGS             eng (English)           40.207                  42                      213,480         1,219           
00325.M2TS      4610 (0x1202)   0x90            PGS             ita (Italian)           40.207                  29                      144,755         841             
00326.M2TS      4113 (0x1011)   0x1B            AVC                                     135.302                 24,075                  407,168,679     2,214,813       
00326.M2TS      4352 (0x1100)   0x86            DTS-HD MA       eng (English)           135.302                 3,931                   66,489,628      382,689         
00326.M2TS      4353 (0x1101)   0x82            DTS-ES          ita (Italian)           135.302                 1,510                   25,538,316      152,316         
00326.M2TS      4608 (0x1200)   0x90            PGS             eng (English)           135.302                 11                      180,365         1,034           
00326.M2TS      4609 (0x1201)   0x90            PGS             eng (English)           135.302                 14                      243,432         1,412           
00326.M2TS      4610 (0x1202)   0x90            PGS             ita (Italian)           135.302                 10                      166,834         961             
00327.M2TS      4113 (0x1011)   0x1B            AVC                                     29.071                  24,979                  90,770,468      493,744         
00327.M2TS      4352 (0x1100)   0x86            DTS-HD MA       eng (English)           29.071                  3,852                   13,996,656      81,284          
00327.M2TS      4353 (0x1101)   0x82            DTS-ES          ita (Italian)           29.071                  1,514                   5,500,808       32,808          
00327.M2TS      4608 (0x1200)   0x90            PGS             eng (English)           29.071                  39                      140,984         800             
00327.M2TS      4609 (0x1201)   0x90            PGS             eng (English)           29.071                  46                      166,570         945             
00327.M2TS      4610 (0x1202)   0x90            PGS             ita (Italian)           29.071                  34                      124,603         710             
00328.M2TS      4113 (0x1011)   0x1B            AVC                                     438.313                 24,394                  1,336,548,430   7,270,170       
00328.M2TS      4352 (0x1100)   0x86            DTS-HD MA       eng (English)           438.313                 3,902                   213,761,824     1,229,980       
00328.M2TS      4353 (0x1101)   0x82            DTS-ES          ita (Italian)           438.313                 1,509                   82,693,200      493,200         
00328.M2TS      4608 (0x1200)   0x90            PGS             eng (English)           438.313                 47                      2,582,987       14,755          
00328.M2TS      4609 (0x1201)   0x90            PGS             eng (English)           438.313                 53                      2,921,698       16,671          
00328.M2TS      4610 (0x1202)   0x90            PGS             ita (Italian)           438.313                 44                      2,388,028       13,704          
00330.M2TS      4113 (0x1011)   0x1B            AVC                                     45.295                  23,718                  134,286,757     730,482         
00330.M2TS      4352 (0x1100)   0x86            DTS-HD MA       eng (English)           45.295                  3,822                   21,637,588      124,286         
00330.M2TS      4353 (0x1101)   0x82            DTS-ES          ita (Italian)           45.295                  1,512                   8,561,060       51,060          
00330.M2TS      4608 (0x1200)   0x90            PGS             eng (English)           45.295                  34                      193,227         1,123           
00330.M2TS      4609 (0x1201)   0x90            PGS             eng (English)           45.295                  36                      203,216         1,178           
00330.M2TS      4610 (0x1202)   0x90            PGS             ita (Italian)           45.295                  25                      141,435         841             
00332.M2TS      4113 (0x1011)   0x1B            AVC                                     2015.305                24,348                  6,133,612,731   33,363,927      
00332.M2TS      4352 (0x1100)   0x86            DTS-HD MA       eng (English)           2015.305                4,113                   1,036,183,036   5,944,652       
00332.M2TS      4353 (0x1101)   0x82            DTS-ES          ita (Italian)           2015.305                1,509                   380,153,316     2,267,316       
00332.M2TS      4608 (0x1200)   0x90            PGS             eng (English)           2015.305                42                      10,544,463      60,314          
00332.M2TS      4609 (0x1201)   0x90            PGS             eng (English)           2015.305                52                      13,078,528      74,683          
00332.M2TS      4610 (0x1202)   0x90            PGS             ita (Italian)           2015.305                39                      9,905,403       56,771          
00334.M2TS      4113 (0x1011)   0x1B            AVC                                     39.248                  26,229                  128,675,763     699,899         
00334.M2TS      4352 (0x1100)   0x86            DTS-HD MA       eng (English)           39.248                  4,222                   20,714,792      118,697         
00334.M2TS      4353 (0x1101)   0x82            DTS-ES          ita (Italian)           39.248                  1,513                   7,420,256       44,256          
00334.M2TS      4608 (0x1200)   0x90            PGS             eng (English)           39.248                  45                      221,241         1,269           
00334.M2TS      4609 (0x1201)   0x90            PGS             eng (English)           39.248                  45                      221,399         1,271           
00334.M2TS      4610 (0x1202)   0x90            PGS             ita (Italian)           39.248                  38                      186,795         1,083           
00336.M2TS      4113 (0x1011)   0x1B            AVC                                     396.354                 23,978                  1,187,976,371   6,462,095       
00336.M2TS      4352 (0x1100)   0x86            DTS-HD MA       eng (English)           396.354                 3,952                   195,802,516     1,125,823       
00336.M2TS      4353 (0x1101)   0x82            DTS-ES          ita (Italian)           396.354                 1,509                   74,780,004      446,004         
00336.M2TS      4608 (0x1200)   0x90            PGS             eng (English)           396.354                 44                      2,199,295       12,594          
00336.M2TS      4609 (0x1201)   0x90            PGS             eng (English)           396.354                 60                      2,953,864       16,929          
00336.M2TS      4610 (0x1202)   0x90            PGS             ita (Italian)           396.354                 42                      2,095,009       12,034          

[/code]
<---- END FORUMS PASTE ---->

QUICK SUMMARY:

Disc Title: Toy Story 2 - Blu-ray 3D™
Disc Label: Toy.Story.2.1999.3D.Blu-ray.1080p.AVC.DTS-HD.MA.5.1
Disc Size: 37,811,290,418 bytes
Protection: AACS
Playlist: 00800.MPLS
Size: 22,006,910,976 bytes
Length: 1:32:24.413
Total Bitrate: 31.75 Mbps
Video: MPEG-4 AVC Video / 24303 kbps / 1080p / 23.976 fps / 16:9 / High Profile 4.1
Audio: English / DTS-HD Master Audio / 5.1-ES / 48 kHz /  4038 kbps / 24-bit (DTS Core: 5.1-ES / 48 kHz /  1509 kbps / 24-bit)
Audio: Italian / DTS-ES Audio / 5.1-ES / 48 kHz /  1509 kbps / 24-bit
Subtitle: English / 40.240 kbps
Subtitle: English / 50.532 kbps
Subtitle: Italian / 37.140 kbps


********************
PLAYLIST: 00801.MPLS
********************

<--- BEGIN FORUMS PASTE --->
[code]
                                                                                                                Total   Video                                             
Title                                                           Codec   Length  Movie Size      Disc Size       Bitrate Bitrate Main Audio Track                          Secondary Audio Track
-----                                                           ------  ------- --------------  --------------  ------- ------- ------------------                        ---------------------
00801.MPLS                                                      AVC     1:32:24 22,010,572,800  37,811,290,418  31.76   24.31   DTS-HD Master 5.1-ES 4038Kbps (48kHz/24-bit)
[/code]

[code]

DISC INFO:

Disc Title:     Toy Story 2 - Blu-ray 3D™
Disc Label:     Toy.Story.2.1999.3D.Blu-ray.1080p.AVC.DTS-HD.MA.5.1
Disc Size:      37,811,290,418 bytes
Protection:     AACS
BDInfo:         0.7.5.5

PLAYLIST REPORT:

Name:                   00801.MPLS
Length:                 1:32:24.413 (h:m:s.ms)
Size:                   22,010,572,800 bytes
Total Bitrate:          31.76 Mbps

VIDEO:

Codec                   Bitrate             Description     
-----                   -------             -----------     
MPEG-4 AVC Video        24308 kbps          1080p / 23.976 fps / 16:9 / High Profile 4.1

AUDIO:

Codec                           Language        Bitrate         Description     
-----                           --------        -------         -----------     
DTS-HD Master Audio             English         4038 kbps       5.1-ES / 48 kHz /  4038 kbps / 24-bit (DTS Core: 5.1-ES / 48 kHz /  1509 kbps / 24-bit)
DTS-ES Audio                    Italian         1509 kbps       5.1-ES / 48 kHz /  1509 kbps / 24-bit

SUBTITLES:

Codec                           Language        Bitrate         Description     
-----                           --------        -------         -----------     
Presentation Graphics           English         40.240 kbps                     
Presentation Graphics           English         50.532 kbps                     
Presentation Graphics           Italian         37.140 kbps                     

FILES:

Name            Time In         Length          Size            Total Bitrate   
----            -------         ------          ----            -------------   
00316.M2TS      0:00:00.000     0:00:44.502     176,363,520     31,704          
00338.M2TS      0:00:44.502     0:00:52.844     207,777,792     31,455          
00318.M2TS      0:01:37.347     0:02:02.956     504,072,192     32,797          
00340.M2TS      0:03:40.303     0:00:44.461     177,119,232     31,870          
00320.M2TS      0:04:24.764     0:13:45.449     3,254,740,992   31,544          
00342.M2TS      0:18:10.214     0:00:26.860     106,027,008     31,579          
00322.M2TS      0:18:37.074     0:13:55.584     3,311,738,880   31,707          
00344.M2TS      0:32:32.658     0:00:33.116     129,005,568     31,164          
00324.M2TS      0:33:05.775     0:06:58.876     1,669,466,112   31,885          
00348.M2TS      0:40:04.652     0:00:40.290     158,349,312     31,442          
00326.M2TS      0:40:44.942     0:02:15.385     529,489,920     31,288          
00352.M2TS      0:43:00.327     0:00:29.154     121,724,928     33,402          
00328.M2TS      0:43:29.481     0:07:18.396     1,738,211,328   31,719          
00356.M2TS      0:50:47.878     0:00:45.378     174,471,168     30,758          
00332.M2TS      0:51:33.256     0:33:35.388     8,032,352,256   31,884          
00360.M2TS      1:25:08.645     0:00:39.330     166,619,136     33,891          
00336.M2TS      1:25:47.976     0:06:36.437     1,553,043,456   31,340          

CHAPTERS:

Number          Time In         Length          Avg Video Rate  Max 1-Sec Rate  Max 1-Sec Time  Max 5-Sec Rate  Max 5-Sec Time  Max 10Sec Rate  Max 10Sec Time  Avg Frame Size  Max Frame Size  Max Frame Time  
------          -------         ------          --------------  --------------  --------------  --------------  --------------  --------------  --------------  --------------  --------------  --------------  
1               0:00:00.000     0:01:23.583     25,167 kbps     32,899 kbps     00:01:01.144    29,905 kbps     00:00:14.389    29,744 kbps     00:00:14.389    131,145 bytes   413,923 bytes   00:01:06.816    
2               0:01:23.583     0:03:24.704     24,341 kbps     39,029 kbps     00:03:01.139    31,086 kbps     00:01:39.224    29,500 kbps     00:02:34.696    126,900 bytes   633,325 bytes   00:03:39.510    
3               0:04:48.287     0:02:47.500     23,903 kbps     30,570 kbps     00:04:48.496    29,066 kbps     00:04:48.371    28,230 kbps     00:04:48.454    124,617 bytes   462,537 bytes   00:07:09.554    
4               0:07:35.788     0:03:05.143     24,274 kbps     31,334 kbps     00:10:39.930    28,468 kbps     00:08:07.445    28,088 kbps     00:09:34.865    126,552 bytes   461,227 bytes   00:08:44.690    
5               0:10:40.931     0:01:13.865     23,273 kbps     31,145 kbps     00:10:44.602    30,063 kbps     00:10:41.307    26,062 kbps     00:10:40.931    121,336 bytes   449,692 bytes   00:10:57.907    
6               0:11:54.797     0:00:52.302     22,036 kbps     30,716 kbps     00:12:03.055    28,627 kbps     00:12:00.344    25,018 kbps     00:11:57.341    114,887 bytes   351,819 bytes   00:12:18.779    
7               0:12:47.099     0:02:42.829     24,486 kbps     33,643 kbps     00:15:25.924    29,001 kbps     00:15:08.991    28,197 kbps     00:15:03.777    127,659 bytes   639,416 bytes   00:14:31.328    
8               0:15:29.928     0:02:45.915     24,342 kbps     34,191 kbps     00:17:14.324    28,593 kbps     00:17:29.465    27,779 kbps     00:17:25.210    126,907 bytes   640,525 bytes   00:15:34.683    
9               0:18:15.844     0:02:01.746     25,183 kbps     31,095 kbps     00:19:31.628    29,105 kbps     00:19:19.950    27,721 kbps     00:20:02.868    131,291 bytes   500,933 bytes   00:18:49.878    
10              0:20:17.591     0:03:56.444     23,702 kbps     31,543 kbps     00:20:54.503    29,928 kbps     00:20:45.118    29,649 kbps     00:20:45.410    123,571 bytes   563,117 bytes   00:23:25.320    
11              0:24:14.035     0:01:40.350     23,388 kbps     30,207 kbps     00:24:47.152    29,388 kbps     00:24:45.817    28,531 kbps     00:24:43.607    121,935 bytes   485,531 bytes   00:25:22.896    
12              0:25:54.386     0:04:37.735     24,767 kbps     30,773 kbps     00:25:59.891    29,499 kbps     00:25:58.098    28,592 kbps     00:26:42.183    129,123 bytes   520,992 bytes   00:30:19.359    
13              0:30:32.121     0:01:16.326     25,154 kbps     31,395 kbps     00:30:58.898    29,605 kbps     00:30:57.814    29,199 kbps     00:30:57.772    131,143 bytes   634,320 bytes   00:30:54.936    
14              0:31:48.448     0:01:03.021     25,020 kbps     31,231 kbps     00:32:50.468    29,935 kbps     00:32:46.464    29,792 kbps     00:32:41.459    130,442 bytes   620,220 bytes   00:32:04.380    
15              0:32:51.469     0:03:53.524     23,505 kbps     32,486 kbps     00:34:16.345    29,461 kbps     00:34:03.416    28,526 kbps     00:34:01.205    122,546 bytes   611,731 bytes   00:35:05.394    
16              0:36:44.994     0:02:24.143     25,739 kbps     32,637 kbps     00:37:19.403    30,154 kbps     00:37:28.371    29,920 kbps     00:37:28.204    134,192 bytes   634,025 bytes   00:37:14.190    
17              0:39:09.138     0:00:43.918     24,397 kbps     29,995 kbps     00:39:10.890    28,510 kbps     00:39:10.890    26,981 kbps     00:39:10.973    127,194 bytes   438,723 bytes   00:39:17.771    
18              0:39:53.057     0:01:13.281     23,626 kbps     33,273 kbps     00:40:10.616    27,880 kbps     00:40:11.242    26,883 kbps     00:40:07.029    123,176 bytes   630,794 bytes   00:40:02.566    
19              0:41:06.338     0:01:19.871     24,558 kbps     30,673 kbps     00:41:57.222    28,278 kbps     00:42:21.205    27,733 kbps     00:42:16.200    128,036 bytes   401,402 bytes   00:41:59.808    
20              0:42:26.210     0:02:15.134     24,772 kbps     33,878 kbps     00:43:00.285    30,438 kbps     00:42:42.476    28,643 kbps     00:43:07.584    129,152 bytes   638,044 bytes   00:42:47.439    
21              0:44:41.345     0:02:17.220     25,153 kbps     35,179 kbps     00:46:56.480    30,301 kbps     00:46:52.434    28,460 kbps     00:45:44.199    131,136 bytes   636,000 bytes   00:46:57.814    
22              0:46:58.565     0:06:25.384     23,768 kbps     35,326 kbps     00:51:45.685    30,678 kbps     00:51:41.723    30,331 kbps     00:51:36.718    123,913 bytes   609,847 bytes   00:51:51.274    
23              0:53:23.950     0:02:55.967     24,436 kbps     31,312 kbps     00:54:50.203    30,172 kbps     00:54:15.960    28,633 kbps     00:54:12.999    127,397 bytes   488,422 bytes   00:56:17.957    
24              0:56:19.918     0:04:50.123     24,251 kbps     33,770 kbps     00:57:10.093    29,317 kbps     01:00:36.090    28,878 kbps     00:59:05.708    126,436 bytes   637,431 bytes   00:57:11.094    
25              1:01:10.041     0:01:04.230     24,584 kbps     30,855 kbps     01:02:12.603    29,648 kbps     01:02:08.891    28,729 kbps     01:02:04.262    128,172 bytes   432,765 bytes   01:01:13.169    
26              1:02:14.272     0:02:09.629     24,879 kbps     32,268 kbps     01:04:22.483    28,866 kbps     01:04:15.559    28,284 kbps     01:04:13.432    129,707 bytes   493,264 bytes   01:04:10.971    
27              1:04:23.901     0:03:36.507     23,380 kbps     32,907 kbps     01:07:22.454    29,656 kbps     01:07:18.492    28,419 kbps     01:07:13.445    121,892 bytes   637,342 bytes   01:07:25.416    
28              1:08:00.409     0:01:51.778     23,395 kbps     31,759 kbps     01:09:10.562    27,008 kbps     01:08:21.639    25,826 kbps     01:08:19.678    121,970 bytes   447,208 bytes   01:09:11.480    
29              1:09:52.187     0:02:35.280     25,670 kbps     31,982 kbps     01:10:18.422    29,478 kbps     01:10:33.812    28,843 kbps     01:10:27.806    133,829 bytes   473,441 bytes   01:10:06.827    
30              1:12:27.467     0:02:31.025     23,777 kbps     29,355 kbps     01:14:52.612    26,852 kbps     01:13:56.390    26,382 kbps     01:13:53.178    123,962 bytes   424,602 bytes   01:12:28.468    
31              1:14:58.493     0:02:29.816     25,060 kbps     31,542 kbps     01:15:05.751    29,114 kbps     01:15:03.707    28,435 kbps     01:17:05.912    130,649 bytes   352,360 bytes   01:15:52.381    
32              1:17:28.310     0:02:17.971     23,285 kbps     30,564 kbps     01:17:57.964    27,878 kbps     01:18:12.521    26,847 kbps     01:19:22.257    121,399 bytes   365,724 bytes   01:17:45.869    
33              1:19:46.281     0:01:49.526     25,359 kbps     30,433 kbps     01:20:37.707    28,664 kbps     01:20:40.669    27,782 kbps     01:20:36.247    132,213 bytes   306,780 bytes   01:21:07.028    
34              1:21:35.807     0:04:13.169     25,075 kbps     32,004 kbps     01:21:45.400    29,818 kbps     01:21:54.993    29,468 kbps     01:21:52.824    130,730 bytes   564,241 bytes   01:25:03.514    
35              1:25:48.977     0:06:35.436     23,996 kbps     31,769 kbps     01:29:25.526    30,064 kbps     01:29:36.913    29,859 kbps     01:29:21.355    125,118 bytes   390,023 bytes   01:30:16.619    

STREAM DIAGNOSTICS:

File            PID             Type            Codec           Language                Seconds                 Bitrate                 Bytes           Packets         
----            ---             ----            -----           --------                --------------          --------------          -------------   -----           
00316.M2TS      4113 (0x1011)   0x1B            AVC                                     44.419                  24,582                  136,488,295     742,433         
00316.M2TS      4352 (0x1100)   0x86            DTS-HD MA       eng (English)           44.419                  3,911                   21,717,516      124,419         
00316.M2TS      4353 (0x1101)   0x82            DTS-ES          ita (Italian)           44.419                  1,512                   8,396,076       50,076          
00316.M2TS      4608 (0x1200)   0x90            PGS             eng (English)           44.419                  0                       70              7               
00316.M2TS      4609 (0x1201)   0x90            PGS             eng (English)           44.419                  2                       11,905          72              
00316.M2TS      4610 (0x1202)   0x90            PGS             ita (Italian)           44.419                  0                       70              7               
00338.M2TS      4113 (0x1011)   0x1B            AVC                                     52.761                  24,026                  158,452,812     861,922         
00338.M2TS      4352 (0x1100)   0x86            DTS-HD MA       eng (English)           52.761                  4,198                   27,685,888      158,916         
00338.M2TS      4353 (0x1101)   0x82            DTS-ES          ita (Italian)           52.761                  1,512                   9,969,460       59,460          
00338.M2TS      4608 (0x1200)   0x90            PGS             eng (English)           52.761                  0                       70              7               
00338.M2TS      4609 (0x1201)   0x90            PGS             eng (English)           52.761                  2                       13,202          78              
00338.M2TS      4610 (0x1202)   0x90            PGS             ita (Italian)           52.761                  0                       70              7               
00318.M2TS      4113 (0x1011)   0x1B            AVC                                     122.873                 24,851                  381,690,744     2,076,186       
00318.M2TS      4352 (0x1100)   0x86            DTS-HD MA       eng (English)           122.873                 4,613                   70,853,764      403,445         
00318.M2TS      4353 (0x1101)   0x82            DTS-ES          ita (Italian)           122.873                 1,510                   23,194,336      138,336         
00318.M2TS      4608 (0x1200)   0x90            PGS             eng (English)           122.873                 7                       110,121         625             
00318.M2TS      4609 (0x1201)   0x90            PGS             eng (English)           122.873                 23                      360,297         2,081           
00318.M2TS      4610 (0x1202)   0x90            PGS             ita (Italian)           122.873                 7                       101,193         576             
00340.M2TS      4113 (0x1011)   0x1B            AVC                                     44.378                  24,238                  134,455,972     731,380         
00340.M2TS      4352 (0x1100)   0x86            DTS-HD MA       eng (English)           44.378                  4,391                   24,357,444      139,029         
00340.M2TS      4353 (0x1101)   0x82            DTS-ES          ita (Italian)           44.378                  1,512                   8,388,028       50,028          
00340.M2TS      4608 (0x1200)   0x90            PGS             eng (English)           44.378                  3                       16,105          94              
00340.M2TS      4609 (0x1201)   0x90            PGS             eng (English)           44.378                  12                      65,906          385             
00340.M2TS      4610 (0x1202)   0x90            PGS             ita (Italian)           44.378                  3                       15,080          89              
00320.M2TS      4113 (0x1011)   0x1B            AVC                                     825.366                 24,077                  2,484,010,614   13,511,948      
00320.M2TS      4352 (0x1100)   0x86            DTS-HD MA       eng (English)           825.366                 4,047                   417,577,624     2,399,838       
00320.M2TS      4353 (0x1101)   0x82            DTS-ES          ita (Italian)           825.366                 1,509                   155,700,632     928,632         
00320.M2TS      4608 (0x1200)   0x90            PGS             eng (English)           825.366                 45                      4,601,800       26,315          
00320.M2TS      4609 (0x1201)   0x90            PGS             eng (English)           825.366                 58                      5,986,118       34,099          
00320.M2TS      4610 (0x1202)   0x90            PGS             ita (Italian)           825.366                 39                      4,048,034       23,278          
00342.M2TS      4113 (0x1011)   0x1B            AVC                                     26.777                  24,372                  81,576,519      443,731         
00342.M2TS      4352 (0x1100)   0x86            DTS-HD MA       eng (English)           26.777                  3,938                   13,181,016      75,779          
00342.M2TS      4353 (0x1101)   0x82            DTS-ES          ita (Italian)           26.777                  1,514                   5,068,228       30,228          
00342.M2TS      4608 (0x1200)   0x90            PGS             eng (English)           26.777                  28                      95,346          544             
00342.M2TS      4609 (0x1201)   0x90            PGS             eng (English)           26.777                  28                      95,346          544             
00342.M2TS      4610 (0x1202)   0x90            PGS             ita (Italian)           26.777                  25                      84,884          488             
00322.M2TS      4113 (0x1011)   0x1B            AVC                                     835.501                 24,349                  2,542,999,341   13,832,637      
00322.M2TS      4352 (0x1100)   0x86            DTS-HD MA       eng (English)           835.501                 3,922                   409,586,016     2,354,060       
00322.M2TS      4353 (0x1101)   0x82            DTS-ES          ita (Italian)           835.501                 1,509                   157,614,044     940,044         
00322.M2TS      4608 (0x1200)   0x90            PGS             eng (English)           835.501                 51                      5,314,731       30,337          
00322.M2TS      4609 (0x1201)   0x90            PGS             eng (English)           835.501                 60                      6,286,771       35,807          
00322.M2TS      4610 (0x1202)   0x90            PGS             ita (Italian)           835.501                 46                      4,847,515       27,766          
00344.M2TS      4113 (0x1011)   0x1B            AVC                                     33.033                  24,259                  100,170,057     544,894         
00344.M2TS      4352 (0x1100)   0x86            DTS-HD MA       eng (English)           33.033                  3,653                   15,085,696      86,708          
00344.M2TS      4353 (0x1101)   0x82            DTS-ES          ita (Italian)           33.033                  1,513                   6,247,260       37,260          
00344.M2TS      4608 (0x1200)   0x90            PGS             eng (English)           33.033                  22                      89,956          510             
00344.M2TS      4609 (0x1201)   0x90            PGS             eng (English)           33.033                  35                      145,729         827             
00344.M2TS      4610 (0x1202)   0x90            PGS             ita (Italian)           33.033                  25                      104,339         594             
00324.M2TS      4113 (0x1011)   0x1B            AVC                                     418.793                 24,506                  1,282,893,726   6,978,285       
00324.M2TS      4352 (0x1100)   0x86            DTS-HD MA       eng (English)           418.793                 3,999                   209,333,992     1,203,545       
00324.M2TS      4353 (0x1101)   0x82            DTS-ES          ita (Italian)           418.793                 1,509                   79,011,240      471,240         
00324.M2TS      4608 (0x1200)   0x90            PGS             eng (English)           418.793                 28                      1,441,300       8,262           
00324.M2TS      4609 (0x1201)   0x90            PGS             eng (English)           418.793                 39                      2,053,691       11,801          
00324.M2TS      4610 (0x1202)   0x90            PGS             ita (Italian)           418.793                 26                      1,385,699       7,953           
00348.M2TS      4113 (0x1011)   0x1B            AVC                                     40.207                  24,047                  120,854,268     657,396         
00348.M2TS      4352 (0x1100)   0x86            DTS-HD MA       eng (English)           40.207                  4,049                   20,350,720      117,672         
00348.M2TS      4353 (0x1101)   0x82            DTS-ES          ita (Italian)           40.207                  1,512                   7,601,336       45,336          
00348.M2TS      4608 (0x1200)   0x90            PGS             eng (English)           40.207                  31                      156,514         902             
00348.M2TS      4609 (0x1201)   0x90            PGS             eng (English)           40.207                  42                      213,480         1,219           
00348.M2TS      4610 (0x1202)   0x90            PGS             ita (Italian)           40.207                  29                      144,755         841             
00326.M2TS      4113 (0x1011)   0x1B            AVC                                     135.302                 24,075                  407,168,679     2,214,813       
00326.M2TS      4352 (0x1100)   0x86            DTS-HD MA       eng (English)           135.302                 3,931                   66,489,628      382,689         
00326.M2TS      4353 (0x1101)   0x82            DTS-ES          ita (Italian)           135.302                 1,510                   25,538,316      152,316         
00326.M2TS      4608 (0x1200)   0x90            PGS             eng (English)           135.302                 11                      180,365         1,034           
00326.M2TS      4609 (0x1201)   0x90            PGS             eng (English)           135.302                 14                      243,432         1,412           
00326.M2TS      4610 (0x1202)   0x90            PGS             ita (Italian)           135.302                 10                      166,834         961             
00352.M2TS      4113 (0x1011)   0x1B            AVC                                     29.071                  26,129                  94,949,399      516,451         
00352.M2TS      4352 (0x1100)   0x86            DTS-HD MA       eng (English)           29.071                  3,852                   13,996,656      81,284          
00352.M2TS      4353 (0x1101)   0x82            DTS-ES          ita (Italian)           29.071                  1,514                   5,500,808       32,808          
00352.M2TS      4608 (0x1200)   0x90            PGS             eng (English)           29.071                  39                      140,984         800             
00352.M2TS      4609 (0x1201)   0x90            PGS             eng (English)           29.071                  46                      166,570         945             
00352.M2TS      4610 (0x1202)   0x90            PGS             ita (Italian)           29.071                  34                      124,603         710             
00328.M2TS      4113 (0x1011)   0x1B            AVC                                     438.313                 24,394                  1,336,548,430   7,270,170       
00328.M2TS      4352 (0x1100)   0x86            DTS-HD MA       eng (English)           438.313                 3,902                   213,761,824     1,229,980       
00328.M2TS      4353 (0x1101)   0x82            DTS-ES          ita (Italian)           438.313                 1,509                   82,693,200      493,200         
00328.M2TS      4608 (0x1200)   0x90            PGS             eng (English)           438.313                 47                      2,582,987       14,755          
00328.M2TS      4609 (0x1201)   0x90            PGS             eng (English)           438.313                 53                      2,921,698       16,671          
00328.M2TS      4610 (0x1202)   0x90            PGS             ita (Italian)           438.313                 44                      2,388,028       13,704          
00356.M2TS      4113 (0x1011)   0x1B            AVC                                     45.295                  23,660                  133,958,044     728,688         
00356.M2TS      4352 (0x1100)   0x86            DTS-HD MA       eng (English)           45.295                  3,822                   21,637,588      124,286         
00356.M2TS      4353 (0x1101)   0x82            DTS-ES          ita (Italian)           45.295                  1,512                   8,561,060       51,060          
00356.M2TS      4608 (0x1200)   0x90            PGS             eng (English)           45.295                  34                      193,227         1,123           
00356.M2TS      4609 (0x1201)   0x90            PGS             eng (English)           45.295                  36                      203,216         1,178           
00356.M2TS      4610 (0x1202)   0x90            PGS             ita (Italian)           45.295                  25                      141,435         841             
00332.M2TS      4113 (0x1011)   0x1B            AVC                                     2015.305                24,348                  6,133,612,731   33,363,927      
00332.M2TS      4352 (0x1100)   0x86            DTS-HD MA       eng (English)           2015.305                4,113                   1,036,183,036   5,944,652       
00332.M2TS      4353 (0x1101)   0x82            DTS-ES          ita (Italian)           2015.305                1,509                   380,153,316     2,267,316       
00332.M2TS      4608 (0x1200)   0x90            PGS             eng (English)           2015.305                42                      10,544,463      60,314          
00332.M2TS      4609 (0x1201)   0x90            PGS             eng (English)           2015.305                52                      13,078,528      74,683          
00332.M2TS      4610 (0x1202)   0x90            PGS             ita (Italian)           2015.305                39                      9,905,403       56,771          
00360.M2TS      4113 (0x1011)   0x1B            AVC                                     39.248                  26,229                  128,675,763     699,899         
00360.M2TS      4352 (0x1100)   0x86            DTS-HD MA       eng (English)           39.248                  4,222                   20,714,792      118,697         
00360.M2TS      4353 (0x1101)   0x82            DTS-ES          ita (Italian)           39.248                  1,513                   7,420,256       44,256          
00360.M2TS      4608 (0x1200)   0x90            PGS             eng (English)           39.248                  45                      221,241         1,269           
00360.M2TS      4609 (0x1201)   0x90            PGS             eng (English)           39.248                  45                      221,399         1,271           
00360.M2TS      4610 (0x1202)   0x90            PGS             ita (Italian)           39.248                  38                      186,795         1,083           
00336.M2TS      4113 (0x1011)   0x1B            AVC                                     396.354                 23,978                  1,187,976,371   6,462,095       
00336.M2TS      4352 (0x1100)   0x86            DTS-HD MA       eng (English)           396.354                 3,952                   195,802,516     1,125,823       
00336.M2TS      4353 (0x1101)   0x82            DTS-ES          ita (Italian)           396.354                 1,509                   74,780,004      446,004         
00336.M2TS      4608 (0x1200)   0x90            PGS             eng (English)           396.354                 44                      2,199,295       12,594          
00336.M2TS      4609 (0x1201)   0x90            PGS             eng (English)           396.354                 60                      2,953,864       16,929          
00336.M2TS      4610 (0x1202)   0x90            PGS             ita (Italian)           396.354                 42                      2,095,009       12,034          

[/code]
<---- END FORUMS PASTE ---->

QUICK SUMMARY:

Disc Title: Toy Story 2 - Blu-ray 3D™
Disc Label: Toy.Story.2.1999.3D.Blu-ray.1080p.AVC.DTS-HD.MA.5.1
Disc Size: 37,811,290,418 bytes
Protection: AACS
Playlist: 00801.MPLS
Size: 22,010,572,800 bytes
Length: 1:32:24.413
Total Bitrate: 31.76 Mbps
Video: MPEG-4 AVC Video / 24308 kbps / 1080p / 23.976 fps / 16:9 / High Profile 4.1
Audio: English / DTS-HD Master Audio / 5.1-ES / 48 kHz /  4038 kbps / 24-bit (DTS Core: 5.1-ES / 48 kHz /  1509 kbps / 24-bit)
Audio: Italian / DTS-ES Audio / 5.1-ES / 48 kHz /  1509 kbps / 24-bit
Subtitle: English / 40.240 kbps
Subtitle: English / 50.532 kbps
Subtitle: Italian / 37.140 kbps

